<svg id="visual" viewBox="0 0 2500 200" width="2500" height="200" xmlns="http://www.w3.org/2000/svg" xmlns:xlink="http://www.w3.org/1999/xlink" version="1.1"><path d="M0 58L69.5 57.5C139 57 278 56 416.8 48.7C555.7 41.3 694.3 27.7 833.2 28.8C972 30 1111 46 1250 47.2C1389 48.3 1528 34.7 1666.8 30.7C1805.7 26.7 1944.3 32.3 2083.2 37.2C2222 42 2361 46 2430.5 48L2500 50L2500 201L2430.5 201C2361 201 2222 201 2083.2 201C1944.3 201 1805.7 201 1666.8 201C1528 201 1389 201 1250 201C1111 201 972 201 833.2 201C694.3 201 555.7 201 416.8 201C278 201 139 201 69.5 201L0 201Z" fill="#ffffff"></path><path d="M0 69L69.5 68.3C139 67.7 278 66.3 416.8 64.5C555.7 62.7 694.3 60.3 833.2 63.3C972 66.3 1111 74.7 1250 81C1389 87.3 1528 91.7 1666.8 93.2C1805.7 94.7 1944.3 93.3 2083.2 94.7C2222 96 2361 100 2430.5 102L2500 104L2500 201L2430.5 201C2361 201 2222 201 2083.2 201C1944.3 201 1805.7 201 1666.8 201C1528 201 1389 201 1250 201C1111 201 972 201 833.2 201C694.3 201 555.7 201 416.8 201C278 201 139 201 69.5 201L0 201Z" fill="#bdbdbd"></path><path d="M0 125L69.5 122.7C139 120.3 278 115.7 416.8 115.7C555.7 115.7 694.3 120.3 833.2 120.8C972 121.3 1111 117.7 1250 112.2C1389 106.7 1528 99.3 1666.8 104.7C1805.7 110 1944.3 128 2083.2 135.5C2222 143 2361 140 2430.5 138.5L2500 137L2500 201L2430.5 201C2361 201 2222 201 2083.2 201C1944.3 201 1805.7 201 1666.8 201C1528 201 1389 201 1250 201C1111 201 972 201 833.2 201C694.3 201 555.7 201 416.8 201C278 201 139 201 69.5 201L0 201Z" fill="#7e7e7e"></path><path d="M0 141L69.5 142C139 143 278 145 416.8 148.2C555.7 151.3 694.3 155.7 833.2 156.5C972 157.3 1111 154.7 1250 158.8C1389 163 1528 174 1666.8 178.3C1805.7 182.7 1944.3 180.3 2083.2 172.5C2222 164.7 2361 151.3 2430.5 144.7L2500 138L2500 201L2430.5 201C2361 201 2222 201 2083.2 201C1944.3 201 1805.7 201 1666.8 201C1528 201 1389 201 1250 201C1111 201 972 201 833.2 201C694.3 201 555.7 201 416.8 201C278 201 139 201 69.5 201L0 201Z" fill="#454545"></path></svg>