<svg id="visual" viewBox="0 0 2500 200" width="2500" height="200" xmlns="http://www.w3.org/2000/svg" xmlns:xlink="http://www.w3.org/1999/xlink" version="1.1"><path d="M0 140L69.5 140.5C139 141 278 142 416.8 149.3C555.7 156.7 694.3 170.3 833.2 169.2C972 168 1111 152 1250 150.8C1389 149.7 1528 163.3 1666.8 167.3C1805.7 171.3 1944.3 165.7 2083.2 160.8C2222 156 2361 152 2430.5 150L2500 148L2500 0L2430.5 0C2361 0 2222 0 2083.2 0C1944.3 0 1805.7 0 1666.8 0C1528 0 1389 0 1250 0C1111 0 972 0 833.2 0C694.3 0 555.7 0 416.8 0C278 0 139 0 69.5 0L0 0Z" fill="#ffffff"></path><path d="M0 129L69.5 129.7C139 130.3 278 131.7 416.8 133.5C555.7 135.3 694.3 137.7 833.2 134.7C972 131.7 1111 123.3 1250 117C1389 110.7 1528 106.3 1666.8 104.8C1805.7 103.3 1944.3 104.7 2083.2 103.3C2222 102 2361 98 2430.5 96L2500 94L2500 0L2430.5 0C2361 0 2222 0 2083.2 0C1944.3 0 1805.7 0 1666.8 0C1528 0 1389 0 1250 0C1111 0 972 0 833.2 0C694.3 0 555.7 0 416.8 0C278 0 139 0 69.5 0L0 0Z" fill="#bdbdbd"></path><path d="M0 73L69.5 75.3C139 77.7 278 82.3 416.8 82.3C555.7 82.3 694.3 77.7 833.2 77.2C972 76.7 1111 80.3 1250 85.8C1389 91.3 1528 98.7 1666.8 93.3C1805.7 88 1944.3 70 2083.2 62.5C2222 55 2361 58 2430.5 59.5L2500 61L2500 0L2430.5 0C2361 0 2222 0 2083.2 0C1944.3 0 1805.7 0 1666.8 0C1528 0 1389 0 1250 0C1111 0 972 0 833.2 0C694.3 0 555.7 0 416.8 0C278 0 139 0 69.5 0L0 0Z" fill="#7e7e7e"></path><path d="M0 57L69.5 56C139 55 278 53 416.8 49.8C555.7 46.7 694.3 42.3 833.2 41.5C972 40.7 1111 43.3 1250 39.2C1389 35 1528 24 1666.8 19.7C1805.7 15.3 1944.3 17.7 2083.2 25.5C2222 33.3 2361 46.7 2430.5 53.3L2500 60L2500 0L2430.5 0C2361 0 2222 0 2083.2 0C1944.3 0 1805.7 0 1666.8 0C1528 0 1389 0 1250 0C1111 0 972 0 833.2 0C694.3 0 555.7 0 416.8 0C278 0 139 0 69.5 0L0 0Z" fill="#454545"></path></svg>